<?xml version="1.0" encoding="utf-8"?>
<!-- Generator: Adobe Illustrator 14.0.0, SVG Export Plug-In . SVG Version: 6.00 Build 43363)  -->
<!DOCTYPE svg PUBLIC "-//W3C//DTD SVG 1.1//EN" "http://www.w3.org/Graphics/SVG/1.1/DTD/svg11.dtd">
<svg version="1.1" id="Ebene_1" xmlns="http://www.w3.org/2000/svg" xmlns:xlink="http://www.w3.org/1999/xlink" x="0px" y="0px"
	 width="201px" height="124px" viewBox="0 0 201 124" enable-background="new 0 0 201 124" xml:space="preserve">
<g>
	<linearGradient id="SVGID_1_" gradientUnits="userSpaceOnUse" x1="47.0591" y1="67.5117" x2="47.0591" y2="54.6143">
		<stop  offset="0.0056" style="stop-color:#3266A9"/>
		<stop  offset="1" style="stop-color:#0099FF"/>
	</linearGradient>
	<path fill="url(#SVGID_1_)" d="M50.282,55.502c-0.784-0.592-2.104-0.888-3.961-0.888h-1.376l-2.283,12.898h1.779
		c3.76,0,6.032-2.245,6.815-6.733c0.134-0.871,0.202-1.642,0.202-2.313C51.457,57.081,51.064,56.093,50.282,55.502z"/>
	<linearGradient id="SVGID_2_" gradientUnits="userSpaceOnUse" x1="65.9609" y1="49.104" x2="65.9609" y2="36.9434">
		<stop  offset="0.0056" style="stop-color:#3266A9"/>
		<stop  offset="1" style="stop-color:#0099FF"/>
	</linearGradient>
	<path fill="url(#SVGID_2_)" d="M65.72,40.482c1.074,0,1.611,0.381,1.611,1.143c0,0.701-0.321,1.201-0.962,1.5
		c-0.209,0.119-0.366,0.194-0.471,0.224c-0.065,0.019-0.158,0.037-0.271,0.056c1.98,1.621,3.702,3.544,5.097,5.699
		c0.117-0.321,0.21-0.658,0.277-1.013l0.09-1.008c0-1.223-0.568-2.081-1.701-2.574c0.776-0.402,1.376-0.94,1.801-1.611
		c0.425-0.672,0.638-1.418,0.638-2.239c0-0.642-0.198-1.265-0.593-1.868c-0.396-0.605-0.98-1.049-1.757-1.333
		c-0.433-0.193-0.876-0.328-1.332-0.402c-0.456-0.075-1.003-0.113-1.645-0.113c-0.82,0-1.663,0.124-2.529,0.37
		c-0.865,0.246-1.6,0.563-2.204,0.952s-1.13,0.907-1.578,1.557c-0.036,0.052-0.066,0.109-0.101,0.163
		c1.196,0.534,2.341,1.163,3.426,1.874C63.947,40.943,64.68,40.482,65.72,40.482z"/>
	<linearGradient id="SVGID_3_" gradientUnits="userSpaceOnUse" x1="50.0576" y1="87.0566" x2="50.0576" y2="37.8525">
		<stop  offset="0.0056" style="stop-color:#3266A9"/>
		<stop  offset="1" style="stop-color:#0099FF"/>
	</linearGradient>
	<path fill="url(#SVGID_3_)" d="M70.725,49.104c-0.433,1.189-1.208,2.147-2.331,2.871c-1.425,0.918-3.182,1.377-5.271,1.377
		c-1.179,0-2.175-0.176-2.988-0.525c-0.813-0.35-1.444-0.864-1.891-1.543c-0.448-0.678-0.671-1.481-0.671-2.405l0.022-0.694
		l0.156-0.693h4.367l-0.028,0.179v0.179v0.246c0,1.164,0.628,1.746,1.884,1.746c0.635,0,1.201-0.217,1.696-0.649
		c0.495-0.434,0.742-0.94,0.742-1.522c0-0.522-0.194-0.887-0.582-1.097c-0.329-0.208-1.007-0.313-2.036-0.313l0.47-2.754
		l1.141-0.067c0.083-0.011,0.154-0.022,0.221-0.033c-0.674-0.551-1.378-1.067-2.11-1.546c-0.044,0.096-0.087,0.195-0.125,0.302
		h-4.185c0.192-0.837,0.49-1.56,0.884-2.175c-3.064-1.372-6.46-2.133-10.034-2.133c-13.588,0-24.603,11.014-24.603,24.601
		c0,13.59,11.015,24.604,24.603,24.604S74.66,76.043,74.66,62.453C74.66,57.532,73.214,52.949,70.725,49.104z M59.413,59.233
		l-0.168,1.275c-0.538,2.953-1.511,5.404-2.921,7.35c-1.298,1.835-3.016,3.179-5.153,4.028c-2.138,0.851-4.494,1.274-7.067,1.274
		H33.731l4.264-24.198h10.441c1.141,0,2.204,0.073,3.189,0.218c0.984,0.146,1.868,0.364,2.651,0.655
		c1.611,0.537,2.887,1.471,3.827,2.802c0.94,1.332,1.41,2.992,1.41,4.984L59.413,59.233z"/>
</g>
<linearGradient id="SVGID_4_" gradientUnits="userSpaceOnUse" x1="107.3027" y1="105.8555" x2="93.0727" y2="16.0106">
	<stop  offset="0" style="stop-color:#B2B2B2;stop-opacity:0"/>
	<stop  offset="0.2" style="stop-color:#B2B2B2"/>
	<stop  offset="0.8" style="stop-color:#B2B2B2"/>
	<stop  offset="1" style="stop-color:#B2B2B2;stop-opacity:0"/>
</linearGradient>
<rect x="99.875" y="14.933" fill="url(#SVGID_4_)" width="0.625" height="92"/>
<script  xmlns=""></script>
<path d="M169.583,55.661l-0.804,1.404c-0.294,0.52-0.924,0.738-1.482,0.529c-1.16-0.432-2.222-1.049-3.154-1.826
	c-0.452-0.373-0.568-1.031-0.273-1.541l0.804-1.406c-0.678-0.785-1.206-1.698-1.562-2.69h-1.622c-0.589,0-1.098-0.421-1.195-1.011
	c-0.197-1.179-0.206-2.417,0-3.645c0.098-0.589,0.606-1.021,1.195-1.021h1.622c0.355-0.993,0.884-1.906,1.562-2.692l-0.804-1.404
	c-0.295-0.511-0.187-1.17,0.273-1.542c0.933-0.776,2.003-1.396,3.154-1.826c0.559-0.208,1.188,0.009,1.482,0.529l0.804,1.404
	c1.032-0.186,2.084-0.186,3.117,0l0.803-1.404c0.296-0.52,0.925-0.737,1.483-0.529c1.159,0.431,2.219,1.05,3.151,1.826
	c0.454,0.373,0.571,1.032,0.275,1.542l-0.803,1.404c0.675,0.786,1.206,1.699,1.559,2.692h1.621c0.588,0,1.102,0.422,1.199,1.011
	c0.197,1.179,0.206,2.416,0,3.644c-0.098,0.589-0.611,1.021-1.199,1.021h-1.621c-0.353,0.992-0.884,1.905-1.559,2.69l0.803,1.406
	c0.296,0.509,0.188,1.167-0.275,1.541c-0.933,0.777-2.001,1.395-3.151,1.826c-0.559,0.208-1.188-0.009-1.483-0.529l-0.803-1.404
	C171.677,55.848,170.615,55.848,169.583,55.661z M168.553,49.886c3.781,2.906,8.094-1.404,5.188-5.186
	C169.958,41.783,165.646,46.105,168.553,49.886z M157.23,65.001l3.309,1.65c0.99,0.568,1.424,1.776,1.03,2.856
	c-0.874,2.376-2.593,4.559-4.182,6.465c-0.729,0.871-1.987,1.09-2.979,0.519l-2.856-1.648c-1.571,1.345-3.397,2.416-5.394,3.111
	v3.301c0,1.14-0.813,2.121-1.933,2.317c-2.416,0.415-4.951,0.433-7.455,0c-1.13-0.196-1.964-1.166-1.964-2.317v-3.301
	c-1.996-0.704-3.822-1.767-5.394-3.111l-2.857,1.639c-0.982,0.571-2.25,0.354-2.978-0.521c-1.59-1.903-3.27-4.086-4.143-6.453
	c-0.395-1.07,0.04-2.275,1.03-2.856l3.271-1.65c-0.383-2.054-0.383-4.166,0-6.228l-3.271-1.659c-0.99-0.569-1.434-1.777-1.03-2.848
	c0.873-2.377,2.553-4.556,4.143-6.462c0.728-0.875,1.986-1.09,2.978-0.521l2.857,1.65c1.571-1.347,3.397-2.416,5.394-3.114v-3.311
	c0-1.129,0.803-2.111,1.924-2.308c2.415-0.411,4.96-0.431,7.464-0.009c1.13,0.197,1.964,1.17,1.964,2.317v3.302
	c1.996,0.707,3.822,1.767,5.394,3.114l2.856-1.652c0.982-0.569,2.25-0.353,2.979,0.522c1.589,1.905,3.259,4.085,4.133,6.462
	c0.394,1.069,0.009,2.279-0.981,2.857l-3.309,1.65C157.609,60.826,157.609,62.938,157.23,65.001z M145.678,67.073
	c5.816-7.564-2.817-16.195-10.379-10.381C129.484,64.255,138.116,72.888,145.678,67.073z M169.583,85.018l-0.804,1.402
	c-0.294,0.522-0.924,0.737-1.482,0.532c-1.16-0.435-2.222-1.051-3.154-1.827c-0.452-0.375-0.568-1.03-0.273-1.541l0.804-1.405
	c-0.678-0.786-1.206-1.7-1.562-2.692h-1.622c-0.589,0-1.098-0.42-1.195-1.009c-0.197-1.179-0.206-2.419,0-3.646
	c0.098-0.589,0.606-1.019,1.195-1.019h1.622c0.355-0.995,0.884-1.907,1.562-2.692l-0.804-1.406c-0.295-0.51-0.187-1.169,0.273-1.54
	c0.933-0.775,2.003-1.396,3.154-1.826c0.559-0.209,1.188,0.01,1.482,0.528l0.804,1.405c1.032-0.188,2.084-0.188,3.117,0l0.803-1.405
	c0.296-0.519,0.925-0.737,1.483-0.528c1.159,0.43,2.219,1.051,3.151,1.826c0.454,0.371,0.571,1.03,0.275,1.54l-0.803,1.406
	c0.675,0.785,1.206,1.697,1.559,2.692h1.621c0.588,0,1.102,0.42,1.199,1.009c0.197,1.179,0.206,2.416,0,3.644
	c-0.098,0.59-0.611,1.021-1.199,1.021h-1.621c-0.353,0.992-0.884,1.906-1.559,2.692l0.803,1.405
	c0.296,0.511,0.188,1.166-0.275,1.541c-0.933,0.776-2.001,1.393-3.151,1.827c-0.559,0.205-1.188-0.01-1.483-0.532l-0.803-1.402
	C171.677,85.205,170.615,85.205,169.583,85.018z M168.553,79.232c3.781,2.906,8.094-1.406,5.188-5.188
	C169.958,71.139,165.646,75.451,168.553,79.232z"/>
</svg>
